<?xml version="1.0" encoding="utf-8"?>
<!-- Generator: Adobe Illustrator 19.1.0, SVG Export Plug-In . SVG Version: 6.00 Build 0)  -->
<svg version="1.1" id="Layer_1" xmlns="http://www.w3.org/2000/svg" xmlns:xlink="http://www.w3.org/1999/xlink" x="0px" y="0px"
	 viewBox="0 0 400 400" style="enable-background:new 0 0 400 400;" xml:space="preserve">
<style type="text/css">
	.st0{fill:#BB0826;}
</style>
<path class="st0" d="M132.6,121.6L132.6,121.6c1.1,3.1,4.2,5.3,7.5,5.3c0.9,0,1.8-0.2,2.7-0.5c4.1-1.5,6.3-6.1,4.8-10.2l-17.3-47.7
	c-1.5-4.1-6.1-6.3-10.2-4.8c-4.1,1.5-6.3,6.1-4.8,10.2L132.6,121.6z M202,116.5c4.4,0,8-3.6,8-8V57.8c0-4.4-3.6-8-8-8s-8,3.6-8,8
	v50.7C194,113,197.6,116.5,202,116.5z M257.2,126L257.2,126c0.9,1,1.8,0.7,2.7,0.7c3.3,0,6.4-2,7.5-5.2l17.3-47.6
	c0.7-2,0.6-4.1-0.3-6.1c-0.9-1.9-2.5-3.4-4.5-4.1c-4.1-1.5-8.7,0.6-10.2,4.8l-17.3,47.7c-0.7,2-0.6,4,0.3,5.9S255.2,125,257.2,126z
	 M351.7,104.5c-1.6-1.4-3.7-2-5.8-1.8c-2.1,0.2-4,1.2-5.4,2.8l-32.6,38.9c-2.8,3.4-2.4,8.4,1,11.2c1.4,1.2,3.3,1.9,5.1,1.9
	c2.4,0,4.6-1,6.1-2.9l32.6-38.9C355.5,112.4,355,107.4,351.7,104.5z M59.6,105.5L59.6,105.5c-1.4-1.6-3.3-2.6-5.4-2.8
	c-2.1-0.2-4.2,0.5-5.8,1.8c-1.6,1.4-2.6,3.3-2.8,5.4c-0.2,2.1,0.5,4.2,1.8,5.8L80,154.6c1.5,1.8,3.7,2.8,6.1,2.8
	c1.9,0,3.7-0.7,5.1-1.9c1.6-1.4,2.6-3.3,2.8-5.4c0.2-2.1-0.5-4.2-1.8-5.8L59.6,105.5z M277.4,160H122.6c-10.2,0-17.6,8.3-17.6,18.5
	v112.2c0,10.2,7.4,18.2,17.6,18.2h20.6l38.6,38.5c1.4,1.4,3.3,2.3,5.3,2.4l0.4,0.1c0.1,0,0.1,0,0.2,0h0c4.3,0,7.8-3.7,7.8-8
	c0-0.4,0-0.9-0.1-1.3l-0.9-31.7h83c10.2,0,19.6-8,19.6-18.2V178.5C297,168.3,287.7,160,277.4,160z M281,290.8c0,1.4-2.1,2.2-3.6,2.2
	h-91.2c-2.1,0-4.2,1-5.7,2.6c-1.5,1.5-2.3,3.7-2.3,5.9l0.6,20.8l-26.7-26.7c-1.5-1.5-3.5-2.5-5.6-2.5h-23.9c-1.4,0-1.6-0.8-1.6-2.2
	V178.5c0-1.4,0.2-2.5,1.6-2.5h154.9c1.4,0,3.6,1.1,3.6,2.5V290.8z"/>
</svg>
