<?xml version="1.0" encoding="utf-8"?>
<!-- Generator: Adobe Illustrator 19.1.0, SVG Export Plug-In . SVG Version: 6.00 Build 0)  -->
<svg version="1.1" id="Layer_1" xmlns="http://www.w3.org/2000/svg" xmlns:xlink="http://www.w3.org/1999/xlink" x="0px" y="0px"
	 viewBox="0 0 200 200" style="enable-background:new 0 0 200 200;" xml:space="preserve">
<style type="text/css">
	.st0{fill:#BB0826;}
</style>
<path class="st0" d="M101.5,60.8c2.7,0,4.5-2.2,4.5-5V30.7c0-2.7-1.8-5-4.5-5s-4.5,2.2-4.5,5v25.1C97,58.5,98.8,60.8,101.5,60.8z
	 M128,66L128,66c0.5,0,1.1,0.1,1.7,0.1c2.1,0,4-1.4,4.7-3.4l8.6-23.7c0.5-1.2,0.4-2.6-0.2-3.8s-1.6-2.1-2.8-2.6
	c-2.6-0.9-5.4,0.4-6.3,3L125,59.4C124.1,62,125.4,65,128,66z M65.7,62.6L65.7,62.6c0.7,2,2.6,3.3,4.7,3.3c0.6,0,1.1-0.1,1.7-0.3
	c2.6-0.9,3.9-3.8,3-6.4l-8.6-23.6c-0.9-2.6-3.8-3.9-6.4-3c-1.2,0.5-2.2,1.4-2.8,2.6c-0.6,1.2-0.6,2.5-0.2,3.8L65.7,62.6z M175.7,53
	L175.7,53C175.7,53,175.7,53,175.7,53c-2.1-1.8-5.2-1.5-7,0.6l-16.1,19.2c-1.8,2.1-1.5,5.2,0.6,7c0.9,0.7,2,1.2,3.2,1.2
	c1.5,0,2.9-0.6,3.8-1.8L176.3,60C178.1,57.9,177.8,54.8,175.7,53z M31.3,53.7L31.3,53.7c-0.9-1-2-1.6-3.4-1.8
	c-1.3-0.1-2.6,0.3-3.6,1.1c-1,0.9-1.6,2-1.8,3.4c-0.1,1.3,0.3,2.6,1.1,3.6l16.1,19.2c0.9,1.1,2.3,1.8,3.8,1.8c1.2,0,2.3-0.4,3.2-1.2
	c1-0.9,1.6-2,1.8-3.4c0.1-1.3-0.3-2.6-1.1-3.6L31.3,53.7z M138.3,82H61.7c-4.5,0-7.7,3.9-7.7,8.4V146c0,4.5,3.2,8,7.7,8h10.6
	l19.4,19.4c0.6,0.6,1.3,0.9,2.1,0.9c0,0,0,0,0,0c1.6,0,3-1.3,3-2.9c0-0.2,0-0.4,0-0.6L96.2,154h42.1c4.5,0,8.7-3.5,8.7-8V90.4
	C147,85.9,142.8,82,138.3,82z"/>
</svg>
