<?xml version="1.0" encoding="utf-8"?>
<!-- Generator: Adobe Illustrator 19.1.0, SVG Export Plug-In . SVG Version: 6.00 Build 0)  -->
<svg version="1.1" id="Layer_1" xmlns="http://www.w3.org/2000/svg" xmlns:xlink="http://www.w3.org/1999/xlink" x="0px" y="0px"
	 viewBox="0 0 400 400" style="enable-background:new 0 0 400 400;" xml:space="preserve">
<style type="text/css">
	.st0{fill:#BB0826;}
</style>
<path class="st0" d="M262.5,78.4c-26.7,0-49.5,18-62.5,35.6c-13-17.6-35.7-35.6-62.5-35.6c-42.3,0-75.5,29.9-75.5,68
	c0,78,127.6,169.7,133,173.6c1.4,1,3.1,1.5,4.8,1.5c1.8,0,3.5-0.5,4.8-1.5c4.9-3.5,120.6-87.6,132-161.6c0.9-4.3,1.3-8.2,1.3-12
	C338,108.3,304.8,78.4,262.5,78.4z M322.7,146.5c0,3-0.3,6-1.1,9.7l0,0.1c-9.4,60.8-100.4,133.3-121.8,149.5
	c-12.4-9.4-41.6-32.3-68.6-61.1c-35.7-38-53.8-71.1-53.8-98.3c0-30.5,26.4-54.4,60.1-54.4c23.7,0,45.5,20.1,55.6,38.8
	c1.3,2.4,3.9,3.8,6.9,3.8c2.9,0,5.6-1.5,6.9-3.8c10.5-19.3,31.8-38.8,55.6-38.8C296.2,92.1,322.7,116,322.7,146.5z"/>
</svg>
